PathFileType  4	(X/Y/Z) C:\Users\antoi\Documents\MyRepositories\mobilecap\ResultsAnalysis
DataRate	CameraRate	NumFrames	NumMarkers	Units	OrigDataRate	OrigDataStartFrame	OrigNumFrames
100.0	100.0	4	51	mm	100.0	97	256
Frame#	Time	r_knee			r_shank_antsup			r_ankle			r_calc			r_5meta			r_toe			L_knee			L_shank_antsup			L_ankle			L_calc			L_5meta			L_toe			r_sh2			r_sh3			r_sh4			L_sh2			L_sh3			r_thigh1			r_thigh2			r_thigh3			r_thigh4			r_thigh5			L_thigh1			L_thigh2			L_thigh3			L_thigh4			r.ASIS			r.PSIS			L.ASIS			L.PSIS			C7			R_Shoulder			L_Shoulder			R_Sternum			L_Sternum			R_humerus			R_elbow_med			R_elbow_lat			R_forearm			R_wrist_radius			R_wrist_ulna			L_humerus			L_elbow_med			L_elbow_lat			L_forearm			L_wrist_radius			L_wrist_ulna			R_HJC			L_HJC			R_HJC_reg			L_HJC_reg			
		X1	Y1	Z1	X2	Y2	Z2	X3	Y3	Z3	X4	Y4	Z4	X5	Y5	Z5	X6	Y6	Z6	X7	Y7	Z7	X8	Y8	Z8	X9	Y9	Z9	X10	Y10	Z10	X11	Y11	Z11	X12	Y12	Z12	X13	Y13	Z13	X14	Y14	Z14	X15	Y15	Z15	X16	Y16	Z16	X17	Y17	Z17	X18	Y18	Z18	X19	Y19	Z19	X20	Y20	Z20	X21	Y21	Z21	X22	Y22	Z22	X23	Y23	Z23	X24	Y24	Z24	X25	Y25	Z25	X26	Y26	Z26	X27	Y27	Z27	X28	Y28	Z28	X29	Y29	Z29	X30	Y30	Z30	X31	Y31	Z31	X32	Y32	Z32	X33	Y33	Z33	X34	Y34	Z34	X35	Y35	Z35	X36	Y36	Z36	X37	Y37	Z37	X38	Y38	Z38	X39	Y39	Z39	X40	Y40	Z40	X41	Y41	Z41	X42	Y42	Z42	X43	Y43	Z43	X44	Y44	Z44	X45	Y45	Z45	X46	Y46	Z46	X47	Y47	Z47	X48	Y48	Z48	X49	Y49	Z49	X50	Y50	Z50	X51	Y51	Z51	

97	0.96000000	-442.82437	980.88397	-370.34856	-496.59905	842.87903	-336.02763	-594.98913	500.32618	-376.33086	-659.46623	510.56254	-436.83131	-506.52796	377.65004	-366.05431	-460.69631	389.53045	-417.00574	-486.07119	1021.24548	-793.91198	-471.58306	821.10995	-802.98108	-637.47068	562.35934	-833.12929	-690.95919	564.61078	-760.66662	-583.89373	413.97594	-887.53357	-522.73638	412.87141	-839.42443	-531.70975	736.51316	-332.71691	-435.40965	829.16049	-376.21705	-468.21567	719.70674	-382.90257	-537.50970	855.37116	-849.64645	-579.78125	744.16023	-846.90347	-556.32148	1249.27524	-342.69520	-485.31430	1163.52860	-343.13323	-520.90342	1104.31205	-338.33212	-643.46463	1182.22354	-367.91071	-569.52338	1088.97014	-361.82104	-669.37729	1249.66261	-759.86263	-595.05034	1136.90785	-791.86368	-573.47399	1302.98907	-754.59817	-501.25652	1190.20493	-774.98164	-595.30635	1478.35182	-413.65343	-776.42546	1543.53975	-474.40503	-640.79481	1480.70639	-682.24799	-790.57145	1549.37570	-562.86106	-507.80649	1965.37305	-598.69390	-416.13963	1906.11492	-439.94900	-482.38574	1890.05241	-766.57078	-415.03195	1828.82498	-578.41120	-425.82892	1823.17985	-620.68733	-565.93051	1766.83087	-266.25653	-723.03824	1741.36534	-244.91002	-667.19008	1775.54059	-183.41685	-584.83032	1574.74034	-181.02887	-552.24509	1499.12125	-188.56710	-567.14634	1494.87844	-155.82523	-568.42031	1664.48761	-913.85571	-696.04431	1610.22313	-914.32083	-645.06841	1627.56735	-980.69968	-479.41342	1515.84238	-933.59755	-427.76910	1482.51717	-898.19608	-431.96991	1468.91487	-930.11108	-692.22540	1399.59813	-437.13169	-729.31361	1407.08584	-630.94885	-683.36901	1403.56016	-443.87117	-711.70332	1415.24962	-621.04429	
98	0.97000000	-435.17366	968.47867	-367.45444	-483.78731	827.82129	-333.25946	-564.73365	480.31227	-374.18460	-628.77254	489.10006	-435.37163	-472.56078	360.14283	-364.14350	-426.60767	373.73832	-414.36547	-478.82264	1009.95322	-795.30667	-455.74005	810.15251	-805.95346	-608.03327	542.95625	-837.59209	-662.42713	541.73364	-765.96271	-545.32996	397.68699	-891.57374	-484.51459	400.58933	-843.20592	-512.83544	719.65479	-329.47086	-421.78728	817.07600	-373.03136	-448.91436	706.11725	-379.86968	-523.58670	841.28880	-851.62662	-560.19584	728.01177	-849.71266	-547.12780	1238.47876	-340.78990	-476.71940	1151.87075	-341.43742	-512.88606	1092.78892	-335.97508	-634.84204	1171.99592	-365.54131	-561.81379	1078.15555	-359.05736	-661.10570	1239.85266	-759.06470	-587.96493	1126.52280	-791.39449	-564.77242	1292.35913	-753.97302	-493.56945	1179.11763	-775.11556	-583.85756	1468.23482	-412.58920	-765.37373	1534.03873	-472.83138	-630.39534	1470.79713	-681.37506	-779.66409	1539.90461	-561.46933	-495.35924	1954.64651	-597.29469	-403.14533	1894.49357	-438.90281	-470.30588	1879.48405	-765.32908	-398.22274	1821.09604	-593.28272	-414.35602	1812.02585	-619.18790	-554.97983	1757.61832	-265.29756	-712.73189	1735.28466	-244.47185	-656.20906	1767.55590	-182.71975	-577.45770	1565.84138	-181.45512	-546.57040	1489.12959	-190.17639	-561.64756	1484.92349	-157.56608	-560.01683	1656.53453	-914.14117	-688.20389	1604.26964	-914.47030	-637.11227	1620.80088	-980.71213	-473.48446	1506.16004	-933.28217	-422.47708	1471.72489	-898.18418	-426.85289	1458.32247	-929.98439	-681.27279	1389.81343	-435.94848	-718.96257	1397.42869	-629.64539	-672.55656	1393.64431	-442.66547	-701.15216	1405.38280	-620.03779	
99	0.98000000	-427.62109	954.89425	-364.36774	-471.02157	811.65952	-330.55219	-534.76316	460.34757	-371.76240	-598.42767	467.79998	-433.59780	-439.56864	342.49941	-361.90089	-393.69549	357.46422	-411.71430	-471.48176	997.14439	-796.74192	-440.23553	798.12539	-808.96113	-578.80676	523.48140	-841.83811	-633.93593	518.87442	-771.23696	-507.46118	381.49219	-895.24716	-447.39732	388.06984	-846.34848	-494.45668	702.06957	-326.72774	-408.36941	803.92144	-369.96291	-430.05809	691.76412	-376.60263	-509.85982	826.11450	-853.93278	-540.89366	710.99688	-852.33197	-537.41567	1226.36990	-339.12417	-467.76920	1139.01291	-340.04891	-504.50702	1080.05295	-333.57674	-625.96897	1160.55198	-363.05749	-553.80571	1065.77442	-356.30972	-652.49227	1228.88275	-758.49748	-580.73986	1114.89997	-791.42761	-555.61170	1280.37315	-753.23130	-485.69499	1166.37215	-775.05843	-572.79221	1457.01588	-411.84117	-754.17477	1523.36925	-471.09662	-619.60228	1459.90443	-680.50164	-768.59079	1529.12706	-560.12733	-483.23085	1943.14743	-595.90315	-390.53888	1882.21590	-437.64215	-458.58579	1868.11269	-764.04283	-383.28043	1811.01733	-602.09060	-403.59224	1799.92247	-617.00905	-544.36230	1747.58403	-264.02470	-702.89468	1728.05191	-243.60163	-645.43726	1758.58003	-181.74321	-569.85620	1556.31439	-181.83818	-540.31173	1478.70632	-191.71397	-555.65187	1474.40657	-159.30137	-551.80945	1647.80219	-914.35804	-680.38684	1597.37541	-914.84475	-629.01436	1613.14928	-980.66916	-467.51627	1495.97015	-932.75466	-416.85850	1460.69015	-898.20816	-421.57211	1447.24865	-929.70135	-670.26526	1378.80431	-434.91269	-708.37047	1386.70413	-628.51689	-661.81409	1383.07283	-441.65630	-690.52597	1394.54147	-618.97784	
100	0.99000000	-419.98289	939.90670	-361.48812	-458.30230	794.46938	-327.77297	-505.55280	440.63580	-369.03395	-569.11215	446.65492	-431.18903	-407.47297	325.13045	-359.28999	-362.02717	341.06126	-409.27328	-463.95668	982.90632	-798.19944	-425.08328	785.02948	-811.97803	-549.89192	504.00211	-845.94334	-605.51844	496.42562	-776.16684	-471.07930	365.14340	-898.64849	-411.99992	374.66612	-849.06654	-476.41824	683.96127	-324.02840	-395.18020	789.67762	-366.99539	-411.73706	676.66294	-373.34249	-496.35636	809.85741	-856.41896	-521.83532	693.18062	-854.80763	-527.23943	1213.10008	-337.47892	-458.59723	1124.93800	-338.94330	-495.67210	1066.54971	-331.20960	-616.76576	1147.78439	-360.48398	-545.47659	1052.21980	-353.50008	-643.51191	1216.71290	-758.37749	-573.14387	1102.06906	-791.97384	-545.99843	1266.83396	-752.25159	-477.50538	1152.10170	-774.78665	-561.59842	1444.86362	-411.31881	-742.88134	1511.33362	-469.53579	-608.45808	1448.02338	-679.45295	-757.37078	1517.06258	-558.78751	-471.49449	1930.93460	-594.47790	-378.44930	1869.31852	-436.35562	-447.38922	1855.94933	-762.83445	-374.36212	1795.75800	-591.54853	-392.47452	1787.53084	-616.40083	-534.12220	1736.66680	-262.66955	-693.36519	1719.53214	-242.52297	-635.04376	1748.41610	-180.68228	-562.09051	1545.62822	-182.68663	-533.49181	1467.52759	-193.39338	-549.07668	1463.10479	-161.09134	-543.67315	1638.19859	-914.45372	-672.66959	1589.39453	-915.22930	-620.87791	1604.48482	-980.64967	-461.36418	1485.09562	-932.17329	-411.18799	1449.10521	-897.66221	-416.02966	1435.58674	-929.19974	-658.89295	1366.63922	-433.96464	-697.32836	1374.80438	-627.49237	-650.65106	1371.34573	-440.95208	-679.38374	1382.70574	-617.93834	
